# xmcd
#
# Track frame offsets:
#	150
#	15402
#	30507
#	47970
#	66097
#	82930
#	100725
#	115392
#	129995
#	145802
#	158277
#	174395
#	189967
#	208252
#	225670
#	241150
#	255480
#	272995
#	290470
#	308075
#
# Disc length: 4373 seconds
# Revision: 0
# Processed by: cddbd v1.5.2PL0 Copyright (c) Steve Scherf et al.
# Submitted via: dBpowerAMP V12.0
#
DISCID=04111314
DTITLE=Mariah Carey - Emancipation of Mimi [Japan Platinum Edition]
DYEAR=2005
DGENRE=R&B
TTITLE0=It's Like That
TTITLE1=We Belong Together
TTITLE2=Shake It Off
TTITLE3=Mine Again
TTITLE4=Say Somethin'
TTITLE5=Stay The Night
TTITLE6=Get Your Number
TTITLE7=One and Only
TTITLE8=Circles
TTITLE9=Your Girl
TTITLE10=I Wish You Knew
TTITLE11=To The Floor
TTITLE12=Joy Ride
TTITLE13=Fly Like a Bird
TTITLE14=Sprung
TTITLE15=Secret Love
TTITLE16=Don't Forget About Us
TTITLE17=Makin' It Last All Night (What It Do)
TTITLE18=So Lonely (One and Only Part II)
TTITLE19=We Belong Together [Remix]
EXTD=
EXTT0=
EXTT1=
EXTT2=
EXTT3=
EXTT4=
EXTT5=
EXTT6=
EXTT7=
EXTT8=
EXTT9=
EXTT10=
EXTT11=
EXTT12=
EXTT13=
EXTT14=
EXTT15=
EXTT16=
EXTT17=
EXTT18=
EXTT19=
PLAYORDER=
